<?xml version="1.0" encoding="UTF-8"?><svg xmlns="http://www.w3.org/2000/svg" viewBox="0 0 243 234.83"><defs><style>.cls-1{fill:#231f20;}.cls-2{fill:#fff;}.cls-3{fill:#fbd800;}.cls-4{fill:#d81315;}</style></defs><g id="Vortex_"><path class="cls-3" d="M125.99,20.86l-3.94,28.59c20.42-1.09,36.82,13.29,35.22,35.03-1.65,22.59-22.66,43.17-46.19,44.35l-.53,3.78s92.96,24.54,91.8-47.5c0,0,6.79-64.34-71.17-64.34-1.69,0-3.42.03-5.19.09"/><path class="cls-4" d="M43.79,88.38s-24.82,71.5,61.8,82.34l5.78-41.84c-.51.04-1.01.07-1.52.08-23.29.33-37.28-18.56-32.91-40.17,4.2-20.75,23.49-37.43,44.05-39.21.45-.04.9-.06,1.34-.09l.35-2.48s-7.53-1.64-18.01-1.64c-20.4,0-51.98,6.23-60.88,43.01"/><path class="cls-1" d="M194.92,22.85c1.27,0,2.51.33,3.71.98,1.2.64,2.14,1.58,2.82,2.79.67,1.21,1.01,2.47,1.01,3.78s-.33,2.55-.99,3.75c-.67,1.2-1.59,2.13-2.8,2.8-1.19.66-2.44.99-3.75.99s-2.56-.33-3.76-.99c-1.2-.67-2.12-1.6-2.79-2.8-.66-1.2-1-2.46-1-3.75s.34-2.57,1.02-3.78c.68-1.21,1.62-2.14,2.82-2.79,1.2-.65,2.45-.98,3.71-.98ZM194.92,24.11c-1.06,0-2.09.27-3.09.81-1.01.54-1.8,1.32-2.36,2.33-.56,1.02-.85,2.06-.85,3.16s.28,2.13.83,3.13c.56,1,1.33,1.77,2.34,2.33,1,.55,2.04.84,3.13.84s2.13-.28,3.13-.84c1-.56,1.78-1.33,2.33-2.33.55-1,.83-2.05.83-3.13s-.29-2.14-.84-3.16c-.56-1.01-1.35-1.79-2.36-2.33-1.01-.55-2.04-.81-3.09-.81ZM191.61,34.58v-8.12h2.78c.96,0,1.65.08,2.07.23.43.15.77.41,1.02.78.25.38.38.77.38,1.2,0,.59-.21,1.11-.64,1.55-.42.44-.99.68-1.69.74.28.13.52.27.69.43.33.32.73.85,1.2,1.61l.99,1.59h-1.6l-.72-1.28c-.56-1-1.02-1.64-1.37-1.89-.24-.18-.59-.28-1.05-.28h-.76v3.45h-1.31ZM192.93,30h1.59c.76,0,1.28-.11,1.56-.33.28-.23.42-.53.42-.9,0-.23-.06-.45-.2-.64-.13-.19-.31-.33-.56-.42-.24-.09-.67-.14-1.32-.14h-1.48v2.44Z"/></g><g id="Chapter_Bar"><rect class="cls-4" x="20.25" y="190.96" width="202.5" height="28.69"/><path class="cls-2" d="M38.05,207.15c0-.46.26-.72.72-.72h4.08c.46,0,.72.26.72.72v4.03c0,2.62-4.37,3.55-6.91,3.55-5.21,0-8.86-3.79-8.86-8.81s3.6-8.71,8.88-8.71c2.98,0,6.5,1.2,6.5,3.34v1.37c0,.46-.26.72-.72.72h-.77c-.46,0-.72-.26-.72-.72v-.53c0-1.42-2.23-2.11-4.22-2.11-3.96,0-6.46,2.69-6.46,6.58s2.54,6.79,6.53,6.79c1.51,0,4.54-.46,4.54-2.11v-2.23h-2.59c-.46,0-.72-.26-.72-.72v-.43Z"/><path class="cls-2" d="M44.92,213.29c0-.46.26-.72.72-.72h.91l5.18-14.5c.14-.41.43-.58.84-.58h1.46c.41,0,.7.17.84.58l5.18,14.5h.91c.46,0,.72.26.72.72v.43c0,.46-.26.72-.72.72h-4.44c-.46,0-.72-.26-.72-.72v-.43c0-.46.26-.72.72-.72h1.08l-1.32-3.77h-6l-1.32,3.77h1.1c.46,0,.72.26.72.72v.43c0,.46-.26.72-.72.72h-4.44c-.46,0-.72-.26-.72-.72v-.43ZM55.69,206.88l-2.06-5.88c-.24-.7-.29-1.25-.29-1.3h-.07s-.05.6-.29,1.3l-2.09,5.88h4.8Z"/><path class="cls-2" d="M62.68,213.29c0-.46.26-.72.72-.72h1.39l1.08-13.23h-1.44c-.46,0-.72-.26-.72-.72v-.41c0-.46.26-.72.72-.72h3.48c.41,0,.7.19.84.55l4.1,9.77c.29.7.38,1.18.38,1.22h.05s.1-.53.38-1.22l4.1-9.77c.14-.36.43-.55.84-.55h3.48c.46,0,.72.26.72.72v.41c0,.46-.26.72-.72.72h-1.44l1.08,13.23h1.39c.46,0,.72.26.72.72v.43c0,.46-.26.72-.72.72h-5.09c-.46,0-.72-.26-.72-.72v-.43c0-.46.26-.72.72-.72h1.32l-.77-10.13c-.05-.53.05-1.3.07-1.39h-.07c-.02.07-.17.82-.38,1.3l-3.65,8.35c-.17.36-.43.55-.84.55h-.91c-.41,0-.67-.19-.84-.55l-3.65-8.35c-.22-.48-.36-1.22-.38-1.3h-.07c0,.1.12.86.07,1.39l-.77,10.13h1.32c.46,0,.72.26.72.72v.43c0,.46-.26.72-.72.72h-5.09c-.46,0-.72-.26-.72-.72v-.43Z"/><path class="cls-2" d="M85.67,213.29c0-.46.26-.72.72-.72h1.39v-13.23h-1.39c-.46,0-.72-.26-.72-.72v-.41c0-.46.26-.72.72-.72h10.83c.46,0,.72.26.72.72v2.5c0,.46-.26.72-.72.72h-.65c-.46,0-.72-.26-.72-.72v-1.25h-5.66v5.45h5.28c.46,0,.72.26.72.72v.53c0,.46-.26.72-.72.72h-5.28v5.59h6.07v-1.32c0-.46.26-.72.72-.72h.65c.46,0,.72.26.72.72v2.57c0,.46-.26.72-.72.72h-11.23c-.46,0-.72-.26-.72-.72v-.43Z"/><path class="cls-2" d="M106.14,199.35h-.91c-.46,0-.72-.26-.72-.72v-.41c0-.46.26-.72.72-.72h4.58c.46,0,.72.26.72.72v.41c0,.46-.26.72-.72.72h-1.3l2.64,11.11c.14.6.19,1.2.19,1.27h.07c0-.07.07-.67.24-1.27l3.38-12.34c.12-.43.38-.62.79-.62h.79c.41,0,.67.19.79.62l3.36,12.34c.17.6.24,1.2.24,1.27h.1c0-.07.02-.67.17-1.27l2.64-11.11h-1.3c-.46,0-.72-.26-.72-.72v-.41c0-.46.26-.72.72-.72h4.61c.46,0,.72.26.72.72v.41c0,.46-.26.72-.72.72h-.91l-3.62,14.47c-.1.43-.38.62-.82.62h-1.46c-.41,0-.67-.17-.79-.6l-3.14-11.43c-.17-.6-.22-1.27-.22-1.34h-.1c0,.07-.05.74-.22,1.34l-3.14,11.43c-.12.43-.38.6-.79.6h-1.46c-.43,0-.7-.19-.79-.62l-3.62-14.47Z"/><path class="cls-2" d="M129.47,213.29c0-.46.26-.72.72-.72h1.39v-13.23h-1.39c-.46,0-.72-.26-.72-.72v-.41c0-.46.26-.72.72-.72h6.62c1.2,0,2.18.05,3.12.36,1.78.6,2.95,2.09,2.95,4.39,0,2.45-1.34,4.2-3.5,4.75v.05s.41.26.72.79l2.4,4.18c.26.46.58.55,1.18.55.31,0,.5.26.5.72v.43c0,.46-.26.72-.72.72h-.72c-1.44,0-1.78-.26-2.35-1.27l-2.62-4.63c-.41-.72-.74-.94-1.78-.94h-2.02v4.97h1.37c.46,0,.72.26.72.72v.43c0,.46-.26.72-.72.72h-5.16c-.46,0-.72-.26-.72-.72v-.43ZM137.39,205.63c1.85,0,3.07-1.2,3.07-3.19,0-2.4-1.63-2.98-3.67-2.98h-2.81v6.17h3.41Z"/><path class="cls-2" d="M146.03,213.29c0-.46.26-.72.72-.72h1.39v-13.23h-1.39c-.46,0-.72-.26-.72-.72v-.41c0-.46.26-.72.72-.72h5.21c.46,0,.72.26.72.72v.41c0,.46-.26.72-.72.72h-1.42v13.23h1.42c.46,0,.72.26.72.72v.43c0,.46-.26.72-.72.72h-5.21c-.46,0-.72-.26-.72-.72v-.43Z"/><path class="cls-2" d="M158.39,213.29c0-.46.26-.72.72-.72h1.42v-13.11h-3.98v1.92c0,.46-.26.72-.72.72h-.65c-.46,0-.72-.26-.72-.72v-3.17c0-.46.26-.72.72-.72h13.1c.46,0,.72.26.72.72v3.17c0,.46-.26.72-.72.72h-.65c-.46,0-.72-.26-.72-.72v-1.92h-3.98v13.11h1.42c.46,0,.72.26.72.72v.43c0,.46-.26.72-.72.72h-5.23c-.46,0-.72-.26-.72-.72v-.43Z"/><path class="cls-2" d="M170.8,213.29c0-.46.26-.72.72-.72h1.39v-13.23h-1.39c-.46,0-.72-.26-.72-.72v-.41c0-.46.26-.72.72-.72h5.21c.46,0,.72.26.72.72v.41c0,.46-.26.72-.72.72h-1.42v13.23h1.42c.46,0,.72.26.72.72v.43c0,.46-.26.72-.72.72h-5.21c-.46,0-.72-.26-.72-.72v-.43Z"/><path class="cls-2" d="M179.67,213.29c0-.46.26-.72.72-.72h1.39v-13.23h-1.39c-.46,0-.72-.26-.72-.72v-.41c0-.46.26-.72.72-.72h3.22c.38,0,.65.12.86.46l8.02,11.69c.31.46.55,1.15.58,1.22h.07c0-.07-.12-.84-.12-1.37v-10.15h-1.44c-.46,0-.72-.26-.72-.72v-.41c0-.46.26-.72.72-.72h5.26c.46,0,.72.26.72.72v.41c0,.46-.26.72-.72.72h-1.42v14.38c0,.46-.26.72-.72.72h-1.08c-.38,0-.65-.12-.86-.46l-8.02-11.69c-.31-.48-.55-1.15-.58-1.22h-.07c0,.1.1.84.1,1.37v10.13h1.46c.46,0,.72.26.72.72v.43c0,.46-.26.72-.72.72h-5.26c-.46,0-.72-.26-.72-.72v-.43Z"/><path class="cls-2" d="M209.48,207.15c0-.46.26-.72.72-.72h4.08c.46,0,.72.26.72.72v4.03c0,2.62-4.37,3.55-6.91,3.55-5.21,0-8.86-3.79-8.86-8.81s3.6-8.71,8.88-8.71c2.98,0,6.5,1.2,6.5,3.34v1.37c0,.46-.26.72-.72.72h-.77c-.46,0-.72-.26-.72-.72v-.53c0-1.42-2.23-2.11-4.22-2.11-3.96,0-6.46,2.69-6.46,6.58s2.54,6.79,6.53,6.79c1.51,0,4.54-.46,4.54-2.11v-2.23h-2.59c-.46,0-.72-.26-.72-.72v-.43Z"/></g></svg>